<?xml version="1.0" encoding="UTF-8" standalone="no"?>
<!-- Created with Inkscape (http://www.inkscape.org/) -->

<svg
   xmlns:dc="http://purl.org/dc/elements/1.1/"
   xmlns:cc="http://creativecommons.org/ns#"
   xmlns:rdf="http://www.w3.org/1999/02/22-rdf-syntax-ns#"
   xmlns:svg="http://www.w3.org/2000/svg"
   xmlns="http://www.w3.org/2000/svg"
   xmlns:sodipodi="http://sodipodi.sourceforge.net/DTD/sodipodi-0.dtd"
   xmlns:inkscape="http://www.inkscape.org/namespaces/inkscape"
   width="20"
   height="20"
   viewBox="0 0 5.2916665 5.2916665"
   version="1.1"
   id="svg8"
   inkscape:version="0.92.3 (2405546, 2018-03-11)"
   sodipodi:docname="cm2.svg">
  <defs
     id="defs2" />
  <sodipodi:namedview
     id="base"
     pagecolor="#ffffff"
     bordercolor="#666666"
     borderopacity="1.0"
     inkscape:pageopacity="0.0"
     inkscape:pageshadow="2"
     inkscape:zoom="11.2"
     inkscape:cx="21.456987"
     inkscape:cy="4.4660574"
     inkscape:document-units="mm"
     inkscape:current-layer="layer1"
     showgrid="true"
     units="px"
     inkscape:window-width="1299"
     inkscape:window-height="713"
     inkscape:window-x="67"
     inkscape:window-y="27"
     inkscape:window-maximized="1">
    <inkscape:grid
       type="xygrid"
       id="grid826" />
  </sodipodi:namedview>
  <metadata
     id="metadata5">
    <rdf:RDF>
      <cc:Work
         rdf:about="">
        <dc:format>image/svg+xml</dc:format>
        <dc:type
           rdf:resource="http://purl.org/dc/dcmitype/StillImage" />
        <dc:title></dc:title>
      </cc:Work>
    </rdf:RDF>
  </metadata>
  <g
     inkscape:label="Layer 1"
     inkscape:groupmode="layer"
     id="layer1"
     transform="translate(0,-291.70833)">
    <path
       style="opacity:1;fill:#000000;fill-opacity:1;stroke:none;stroke-width:5.79426241;stroke-miterlimit:4;stroke-dasharray:none;stroke-dashoffset:0;stroke-opacity:1"
       d="M -0.22851562 -0.2265625 L -0.22851562 0.001953125 L -0.22851562 20.228516 L 20.226562 20.228516 L 20.226562 -0.2265625 L -0.22851562 -0.2265625 z M 0.22851562 0.22460938 L 19.775391 0.22460938 L 19.775391 5 L 18.994141 5 L 18.994141 19.771484 L 17.988281 19.771484 L 17.988281 13 L 16.982422 13 L 16.982422 19.771484 L 15.978516 19.771484 L 15.978516 13 L 14.972656 13 L 14.972656 19.771484 L 13.966797 19.771484 L 13.966797 13 L 12.960938 13 L 12.960938 19.771484 L 11.955078 19.771484 L 11.955078 13 L 10.949219 13 L 10.949219 19.771484 L 9.9453125 19.771484 L 9.9453125 10 L 8.9394531 10 L 8.9394531 19.771484 L 7.9335938 19.771484 L 7.9335938 13 L 6.9277344 13 L 6.9277344 19.771484 L 5.921875 19.771484 L 5.921875 13 L 4.9160156 13 L 4.9160156 19.771484 L 3.9121094 19.771484 L 3.9121094 13 L 2.90625 13 L 2.90625 19.771484 L 1.9003906 19.771484 L 1.9003906 13 L 0.89453125 13 L 0.89453125 19.771484 L 0.22851562 19.771484 L 0.22851562 0.22460938 z "
       transform="matrix(0.26458333,0,0,0.26458333,0,291.70833)"
       id="rect828" />
  </g>
</svg>
